<svg xmlns="http://www.w3.org/2000/svg" version="1.1" xmlns:xlink="http://www.w3.org/1999/xlink" xmlns:svgjs="http://svgjs.com/svgjs" width="149.723" height="209.501"><svg xmlns="http://www.w3.org/2000/svg" xmlns:xlink="http://www.w3.org/1999/xlink" width="149.723" height="209.501" viewBox="0 0 149.723 209.501"><defs><linearGradient id="SvgjsLinearGradient1006" x1="69.229" y1="167.601" x2="75.838" y2="160.992" gradientUnits="userSpaceOnUse"><stop offset="0" stop-color="#ef4136"></stop><stop offset="1" stop-color="#fbb040"></stop></linearGradient><linearGradient id="SvgjsLinearGradient1005" x1="65.907" y1="182.704" x2="83.848" y2="164.763" xlink:href="#a"></linearGradient><linearGradient id="SvgjsLinearGradient1004" x1="58.137" y1="147.596" x2="64.209" y2="141.523" xlink:href="#a"></linearGradient><linearGradient id="SvgjsLinearGradient1003" x1="81.115" y1="152.039" x2="95.956" y2="137.199" xlink:href="#a"></linearGradient><linearGradient id="SvgjsLinearGradient1002" x1="87.227" y1="172.395" x2="99.1" y2="160.522" xlink:href="#a"></linearGradient><linearGradient id="SvgjsLinearGradient1001" x1="53.555" y1="169.334" x2="59.583" y2="163.307" xlink:href="#a"></linearGradient><linearGradient id="SvgjsLinearGradient1000" x1="6.681" y1="156.377" x2="143.073" y2="19.985" xlink:href="#a"></linearGradient></defs><path d="M71,162.942a3.314,3.314,0,0,0-2.679,3.749c2.557-2.782,5.839-3.373,9.366-3.853A13.55,13.55,0,0,0,71,162.942Z" fill="url(#a)"></path><path d="M88.107,176.971a10.172,10.172,0,0,1-5.889,1.8,6.845,6.845,0,0,1-5.374-3.063,8.206,8.206,0,0,0,4.705-.465A8.942,8.942,0,0,1,78.5,173.7c-.388-.332-.957-.685-.857-1.2.08-.412.746-.318,1.147-.462.338-.121.69-.209,1.02-.351a5.555,5.555,0,0,0,3.673-5.036,4.7,4.7,0,0,0-3.056-4.731,12.89,12.89,0,0,0-11.676.308,4.641,4.641,0,0,0-2.318,5.41A6.058,6.058,0,0,0,71,172.1c.393.116,1.06-.025,1.11.469.045.437-.469.8-.832,1.111a16.518,16.518,0,0,1-2.722,1.6,8.482,8.482,0,0,0,4.488.523c-1.72,1.788-3.355,2.888-5.607,2.981a11.332,11.332,0,0,1-5.833-1.7,6.7,6.7,0,0,0,4.686,4.783c2.739.745,5.214-.172,7.611-1.341a1.852,1.852,0,0,1,1.973-.01,11.7,11.7,0,0,0,5.711,1.614C84.713,182.124,87.791,179.729,88.107,176.971Zm-19.788-10.28A3.314,3.314,0,0,1,71,162.942a13.55,13.55,0,0,1,6.687-.1C74.158,163.318,70.876,163.909,68.319,166.691Z" fill="url(#b)"></path><path d="M67.652,148.972c-.758-3.384-2-6.529-4.847-8.724-2.951-2.276-6.371-2.549-9.925-2.051-.758.106-.713.633-.611,1.17a8.307,8.307,0,0,0,4.2,6.092,11.545,11.545,0,0,0,6.6,1.374,2.669,2.669,0,0,1,2.592,1.32,18.4,18.4,0,0,1,2.245,4.616A13.13,13.13,0,0,0,67.652,148.972Z" fill="url(#c)"></path><path d="M84.074,148.178a2.622,2.622,0,0,1,2.6-1.339,12.008,12.008,0,0,0,5.637-.9,8.215,8.215,0,0,0,5.117-6.339c.191-.935-.13-1.351-1.149-1.477a15.729,15.729,0,0,0-5,.166c-6.8,1.333-9.6,8.6-9.48,14.429.363-.1.29-.442.369-.684A15.424,15.424,0,0,1,84.074,148.178Z" fill="url(#d)"></path><path d="M95.729,163.675c.668-1.21,1.37-2.469,2.962-2.708.2-.03.451-.085.428-.313-.016-.16-.2-.323-.349-.446a3.852,3.852,0,0,0-6.448,2.147c-.105.545-.137,1.1-.208,1.657-.479,3.732.326,7.711-2.175,11.1a3.178,3.178,0,0,0,1.568-1.041,11.193,11.193,0,0,0,2.848-5.954A14.151,14.151,0,0,1,95.729,163.675Z" fill="url(#e)"></path><path d="M57.406,162.257a3.142,3.142,0,0,0-2.252-2.819,4.893,4.893,0,0,0-4.22.74c-.359.243-.533.585.047.759,2.172.654,3.109,2.368,3.69,4.34.462,1.567.746,3.185,1.214,4.749a9.455,9.455,0,0,0,3.675,5.115c0-.334.044-.473-.007-.547-1.5-2.189-1.653-4.694-1.706-7.22A36.68,36.68,0,0,0,57.406,162.257Z" fill="url(#f)"></path><path d="M122.046,85.558c10.935-7.666,13.961-20.357,20.827-30.967,6.281-8.815,9.7-21.035,3.8-31,.765,10.165-.883,18.789-7.741,26.478a66.662,66.662,0,0,0-9.215-25.547c4.653,14.556,7.376,31.71-3.169,44.467.983-15.362-8.475-27.715-9.659-42.7C115.563,15.892,110.23,7.257,102,.482c6.48,8.853,10.827,18.426,11,30.62-8.478-8.567-17.021-14.771-28.741-16.467,14.119,6.773,24.657,16.854,30.6,31.487-7.207-4.572-14.448-8.784-23.531-10.173,7.616,5.233,16.612,7.392,22.566,15.185,11.582,13.854,5.651,25.885-4.631,35.583a26.352,26.352,0,0,0-3.52-3.209c-1.545-1.177-2.308-.869-2.863.988-.412,1.378-.7,2.793-1.1,4.173-.888,3.043-3.068,5.046-5.33,6.98,0-9.158-1.409-17.051-6.2-24.031,1.667,10.072,5.41,24.314-3.724,31.527a5.07,5.07,0,0,1-.844-.151,42.44,42.44,0,0,0-21.934.109,3.939,3.939,0,0,1-.726.135c-9.979-7.943-4.383-21.289-3.913-32.524C54.963,78.3,53,85.372,53.1,93.017c.009.75.292,1.713-.346,2.249a15.911,15.911,0,0,1-5.556-9.332c-.7-3.761-1.683-3.917-4.572-1.341a25.7,25.7,0,0,0-2.306,2.344C30.7,78.4,24.8,66.834,33.636,53.751c5.151-7.685,12.86-11.973,21.08-15.544,1.066-.464,2.49-.418,3.177-2.222-9.017,1.4-16.4,5.692-23.605,10.57,6.048-14.782,16.68-25.033,30.851-31.96C53.754,16.733,44.581,22.664,36.3,31.254A50.622,50.622,0,0,1,48.258,0C31.6,10.563,34.281,30.268,27.377,46.375c-3.536,6.951-4.236,14.7-4.271,23.054C12.434,56.544,15.22,39.34,19.669,24.676A66.663,66.663,0,0,0,10.543,50.1C3.644,42.532,2.128,33.519,2.4,23.908c-8.831,19.073,8.954,36.533,16.544,52.858,3.271,4.494,7.511,7.662,12.251,12.18C20.981,85.732,12.525,81.3,3.645,77.367c8.542,9.3,20.33,13.6,31.606,18.542a35.573,35.573,0,0,0-1.414,5.955,34.312,34.312,0,0,0-.249,6.7,1,1,0,0,0,.5-.786,49.4,49.4,0,0,1,4.437-10.4c2.87,1.318,5.682,2.712,8.371,4.284a21.57,21.57,0,0,0,2.093,1.7,51.4,51.4,0,0,1,6.025,4.544,4.335,4.335,0,0,1,1.393,3.429,16.126,16.126,0,0,1-1.761,6.549c-.719,1.5-.969,1.551-2.3.584a17.285,17.285,0,0,1-5.021-6.48c-.623-1.224-1.172-2.487-1.754-3.732-.9,3.341-.174,6.59.22,10.125a9.811,9.811,0,0,1-1.537-2.418,31.865,31.865,0,0,1-3.235-12.813c-.013-.388.086-.95-.318-1.08-.492-.158-.541.47-.749.767a9.555,9.555,0,0,0-.767,1.355c-2.126,4.446-2.6,9.187-2.527,14.033.008.57.322,1.471-.233,1.649-.664.213-1.062-.649-1.5-1.144a27.781,27.781,0,0,1-1.739-2.958,3.007,3.007,0,0,0-.36,1.863c-.112,2.831.858,5.52,1.11,8.3.274,3.028-.227,5.83-2.354,8.146a26.72,26.72,0,0,0-6.846,12.064c-.1.449-.482,1.059-.095,1.353.5.378.892-.295,1.315-.529a41.964,41.964,0,0,1,4.406-2.524A44.974,44.974,0,0,0,27.3,159.91c.037,6.4,1.379,13.7,2.9,15.182.5-1.611.788-3.3,2.08-4.69.339,8.485,6.714,18.983,9.042,20.516a33.016,33.016,0,0,1,.578-5.863,11.461,11.461,0,0,0,2.975,4.113,31.157,31.157,0,0,0,6.486,4.3c6.5,3.215,10.69,8.224,12.249,15.358.053.243.027.565.422.678.086-.729.176-1.437.25-2.147a4.664,4.664,0,0,0,.009-.719,26.488,26.488,0,0,0-6.121-15.209c-2.275-2.867-5.175-5.11-7.609-7.815-3.3-3.665-5.836-7.706-6.518-12.712a26.477,26.477,0,0,1-.051-4.516,22.524,22.524,0,0,0-2.9,8.394c-.2-.152-.294-.185-.32-.246-.14-.331-.278-.663-.391-1a45.807,45.807,0,0,1-1.7-18.849c.026-.289.3-.685-.084-.867-.349-.169-.568.22-.774.434-.957,1-1.892,2.017-2.869,3.065-.218-.306-.3-.368-.3-.428a27.342,27.342,0,0,1,2.13-11.458,15.444,15.444,0,0,1,4.23-5.6c.209-.171.439-.432.73-.326.338.124.2.483.216.743a10.786,10.786,0,0,0,.656,3.037c1.413,3.764,4.334,5.926,7.886,7.408,5.091,2.123,9.528,5.057,12.409,9.939.078.132.184.263.469.087a9.871,9.871,0,0,0-1.981-6.092,22.7,22.7,0,0,0-5.62-5.337c-4.149-2.951-6.752-6.853-7.146-12.061-.048-.648.033-1.082.684-1.324a17.015,17.015,0,0,1,8.11-1.15,18.027,18.027,0,0,1,6.084,1.724c.242.123.517.326.776.107s.085-.53.028-.789c-.077-.351-.241-.684-.3-1.036-.145-.834-.887-1.457-.92-2.493a14.708,14.708,0,0,1,3.267,2.217,13.477,13.477,0,0,1,3.972,7.549,6.436,6.436,0,0,0,.342-3.515,4.824,4.824,0,0,1,.772,2.462c.038,1.838.1,3.686-.044,5.514a16.8,16.8,0,0,0,2.786,10.93c.481.729.765.892,1.328.063a16.57,16.57,0,0,0,2.873-10.561,52.385,52.385,0,0,1-.105-5.63,5.206,5.206,0,0,1,.821-2.754,7.19,7.19,0,0,0,.286,3.44c.981-4.519,3.265-7.7,7.225-9.564-.368,1.16-.923,2.218-1.19,3.378-.067.294-.326.647-.042.9.31.279.582-.086.852-.209A17.7,17.7,0,0,1,98.5,135.246c2.638.706,2.884,1.1,2.384,3.755a16.087,16.087,0,0,1-7.2,10.482,17.062,17.062,0,0,0-6.577,7.436,7.848,7.848,0,0,0-.66,4.134c.712-1,1.189-1.717,1.714-2.4A25.51,25.51,0,0,1,98.9,150.85c4.86-2.038,8.5-5.121,8.878-10.842.051-.76.4-.693.825-.31a16.65,16.65,0,0,1,2.789,2.961A21.406,21.406,0,0,1,114.883,153a11.191,11.191,0,0,1,.071,4.258,48.769,48.769,0,0,0-4.025-3.776c.777,7.427.544,14.395-2.126,21.114-.788-2.852-1.31-5.751-3.073-8.21a24.022,24.022,0,0,1-.044,4.745c-.833,5.328-3.67,9.543-7.314,13.339-1.8,1.874-3.826,3.507-5.544,5.465a28.741,28.741,0,0,0-6.779,12.523,16.887,16.887,0,0,0-.3,6.886c.5-.287.4-.739.491-1.1a22.64,22.64,0,0,1,5.367-9.905c2.489-2.731,5.746-4.278,8.851-6.079a18.866,18.866,0,0,0,6.249-5.143c.394-.554.728-1.149,1.168-1.852a59.224,59.224,0,0,1,.69,5.974c4.862-6.336,8.252-12.924,8.923-20.881a6.761,6.761,0,0,1,1.29,2.3c.312.8.563,1.619.84,2.43,4.044-10.185,3.586-20.328-.256-30.7a40.874,40.874,0,0,1,4.707,2.808c.311.209.623.662,1.033.343.327-.254.067-.681-.009-1.016a24.093,24.093,0,0,0-6.248-11.561,10.769,10.769,0,0,1-3-9.338c.367-2.807,1.256-5.553,1.055-8.43-.03-.437.111-.948-.432-1.32a17.37,17.37,0,0,1-2.056,3.408c-.3.3-.648.8-1.07.66-.5-.168-.28-.772-.27-1.18a35.747,35.747,0,0,0-1.175-11.048,14.122,14.122,0,0,0-2.9-5.743c-.456,5.773-1.66,11.276-4.91,16.162.279-3.282,1-6.536.179-9.827-.728,1.279-1.261,2.61-1.932,3.867a17.7,17.7,0,0,1-5.29,6.565c-.819.569-1.319.482-1.775-.446a20.2,20.2,0,0,1-1.842-5.557,5.271,5.271,0,0,1,2.3-5.738c.86-.581,1.688-1.212,2.519-1.836,1.5-1.128,3.052-2.2,4.476-3.42a12.5,12.5,0,0,0,1.118-1.1,61.9,61.9,0,0,1,7.067-3.726,36.538,36.538,0,0,1,2.119,4,54.053,54.053,0,0,1,3,8.131c.093-.5.138-.649.144-.8a34.09,34.09,0,0,0-1.837-12.755c1.1-.421,2.212-.826,3.351-1.2,8.7-3.17,23.848-9.374,27.828-17.856a121.853,121.853,0,0,1-26.208,12.118C119.893,86.842,121.14,86.36,122.046,85.558Z" fill="url(#g)"></path></svg><style>@media (prefers-color-scheme: light) { :root { filter: none; } }
</style></svg>